<svg xmlns="http://www.w3.org/2000/svg" style="display:none">
  <!-- Original line-art watch-type marks. Monochrome via currentColor so CSS themes them.
       No brand designs — generic type silhouettes only. viewBox 0 0 48 48. -->

  <symbol id="wa-dive" viewBox="0 0 48 48">
    <circle cx="24" cy="24" r="15.5" fill="none" stroke="currentColor" stroke-width="1.6"/>
    <path d="M20 5.5h8l-4 4z" fill="currentColor"/>
    <circle cx="24" cy="24" r="18.5" fill="none" stroke="currentColor" stroke-width="1.2" stroke-dasharray="1.2 4.4" opacity=".7"/>
    <path d="M41 24h3" stroke="currentColor" stroke-width="2.2" stroke-linecap="round"/>
    <line x1="24" y1="24" x2="24" y2="13" stroke="currentColor" stroke-width="1.7" stroke-linecap="round"/>
    <line x1="24" y1="24" x2="31" y2="27" stroke="currentColor" stroke-width="1.7" stroke-linecap="round"/>
    <circle cx="24" cy="24" r="1.4" fill="currentColor"/>
  </symbol>

  <symbol id="wa-chronograph" viewBox="0 0 48 48">
    <circle cx="24" cy="24" r="16.5" fill="none" stroke="currentColor" stroke-width="1.6"/>
    <circle cx="17.5" cy="27" r="3.6" fill="none" stroke="currentColor" stroke-width="1.2"/>
    <circle cx="30.5" cy="27" r="3.6" fill="none" stroke="currentColor" stroke-width="1.2"/>
    <path d="M39.5 19l2-2M39.5 29l2 2" stroke="currentColor" stroke-width="2.2" stroke-linecap="round"/>
    <path d="M41 24h2.5" stroke="currentColor" stroke-width="2.2" stroke-linecap="round"/>
    <line x1="24" y1="20" x2="24" y2="10.5" stroke="currentColor" stroke-width="1.7" stroke-linecap="round"/>
    <line x1="24" y1="20" x2="29" y2="16" stroke="currentColor" stroke-width="1.7" stroke-linecap="round"/>
    <circle cx="24" cy="20" r="1.3" fill="currentColor"/>
  </symbol>

  <symbol id="wa-gmt" viewBox="0 0 48 48">
    <circle cx="24" cy="24" r="15.5" fill="none" stroke="currentColor" stroke-width="1.6"/>
    <circle cx="24" cy="24" r="18.5" fill="none" stroke="currentColor" stroke-width="1.2" stroke-dasharray="1 5.6" opacity=".7"/>
    <path d="M41 24h3" stroke="currentColor" stroke-width="2.2" stroke-linecap="round"/>
    <line x1="24" y1="24" x2="24" y2="13" stroke="currentColor" stroke-width="1.7" stroke-linecap="round"/>
    <line x1="24" y1="24" x2="30" y2="27" stroke="currentColor" stroke-width="1.7" stroke-linecap="round"/>
    <path d="M24 24l8-5" stroke="currentColor" stroke-width="1.4" stroke-linecap="round" opacity=".55"/>
    <circle cx="32" cy="19" r="1.5" fill="currentColor" opacity=".55"/>
    <circle cx="24" cy="24" r="1.4" fill="currentColor"/>
  </symbol>

  <symbol id="wa-pilot" viewBox="0 0 48 48">
    <circle cx="24" cy="24" r="16.5" fill="none" stroke="currentColor" stroke-width="1.6"/>
    <path d="M21.5 9.5h5l-2.5 3.2z" fill="currentColor"/>
    <path d="M40.5 22.5l3-1.5v6l-3-1.5z" fill="currentColor"/>
    <line x1="24" y1="24" x2="24" y2="12.5" stroke="currentColor" stroke-width="1.9" stroke-linecap="round"/>
    <line x1="24" y1="24" x2="31" y2="27" stroke="currentColor" stroke-width="1.9" stroke-linecap="round"/>
    <circle cx="24" cy="24" r="1.5" fill="currentColor"/>
  </symbol>

  <symbol id="wa-dress" viewBox="0 0 48 48">
    <circle cx="24" cy="24" r="15" fill="none" stroke="currentColor" stroke-width="1.3"/>
    <path d="M24 10.5v1.8M37.5 24h-1.8M24 37.5v-1.8M12.3 24h-1.8" stroke="currentColor" stroke-width="1.3" stroke-linecap="round"/>
    <path d="M40.5 24h2.5" stroke="currentColor" stroke-width="1.8" stroke-linecap="round"/>
    <line x1="24" y1="24" x2="24" y2="15" stroke="currentColor" stroke-width="1.4" stroke-linecap="round"/>
    <line x1="24" y1="24" x2="30" y2="26" stroke="currentColor" stroke-width="1.4" stroke-linecap="round"/>
    <circle cx="24" cy="24" r="1.2" fill="currentColor"/>
  </symbol>

  <symbol id="wa-integrated" viewBox="0 0 48 48">
    <path d="M24 7.5l11.7 6.8v13.4L24 40.5 12.3 33.7V20.3z" fill="none" stroke="currentColor" stroke-width="1.6"/>
    <path d="M9 15l3.3 5.3M39 15l-3.3 5.3M9 33l3.3-5.3M39 33l-3.3-5.3" stroke="currentColor" stroke-width="1.3" stroke-linecap="round" opacity=".65"/>
    <line x1="24" y1="24" x2="24" y2="14.5" stroke="currentColor" stroke-width="1.6" stroke-linecap="round"/>
    <line x1="24" y1="24" x2="30" y2="27" stroke="currentColor" stroke-width="1.6" stroke-linecap="round"/>
    <circle cx="24" cy="24" r="1.3" fill="currentColor"/>
  </symbol>

  <symbol id="wa-everyday" viewBox="0 0 48 48">
    <circle cx="24" cy="24" r="16" fill="none" stroke="currentColor" stroke-width="1.6"/>
    <circle cx="24" cy="24" r="18.5" fill="none" stroke="currentColor" stroke-width="1.2" stroke-dasharray="1.4 2" opacity=".6"/>
    <rect x="33.4" y="21.6" width="4.2" height="4.8" rx="0.6" fill="none" stroke="currentColor" stroke-width="1.2"/>
    <path d="M41 24h2.5" stroke="currentColor" stroke-width="2" stroke-linecap="round"/>
    <line x1="24" y1="24" x2="24" y2="13" stroke="currentColor" stroke-width="1.7" stroke-linecap="round"/>
    <line x1="24" y1="24" x2="30" y2="27" stroke="currentColor" stroke-width="1.7" stroke-linecap="round"/>
    <circle cx="24" cy="24" r="1.4" fill="currentColor"/>
  </symbol>

  <symbol id="wa-field" viewBox="0 0 48 48">
    <circle cx="24" cy="24" r="16.5" fill="none" stroke="currentColor" stroke-width="1.6"/>
    <path d="M24 10v3M38 24h-3M24 38v-3" stroke="currentColor" stroke-width="1.8" stroke-linecap="round"/>
    <path d="M41 24h2.5" stroke="currentColor" stroke-width="2" stroke-linecap="round"/>
    <line x1="24" y1="24" x2="24" y2="13" stroke="currentColor" stroke-width="1.7" stroke-linecap="round"/>
    <line x1="24" y1="24" x2="30" y2="27" stroke="currentColor" stroke-width="1.7" stroke-linecap="round"/>
    <circle cx="24" cy="24" r="1.4" fill="currentColor"/>
  </symbol>
</svg>
